<svg xmlns="http://www.w3.org/2000/svg" id="interior-1" viewBox="0 0 10.847921 16.404169" class="for-home__img-1"><path id="interior-img-1" d="M2.8174837 15.9407786c.0815-.40028.43658-.4634 2.60648-.4634 2.16991 0 2.52498.0632 2.60648.4634.0846.41546-.18496.46339-2.60648.46339s-2.69108-.0479-2.60648-.46339zm1.34658-1.65499c0-.14564.56695-.26479 1.2599-.26479.69294 0 1.25989.11915 1.25989.26479 0 .14564-.56695.26479-1.25989.26479-.69295 0-1.2599-.11915-1.2599-.26479zm.4555-1.25779c-.93823-3.05766-.79441-3.77335.75826-3.77335 1.63037 0 1.86893.59162 1.1552 2.8647-.36338 1.15729-.53571 1.37205-1.10104 1.37205-.39749 0-.72809-.18857-.81242-.4634zm.38443-4.83255c0-.29421.18665-.52959.41997-.52959.23331 0 .41996.23538.41996.52959 0 .29422-.18665.5296-.41996.5296-.23332 0-.41997-.23538-.41997-.5296zm-4.05966-.89822c-.46197-.14966-.88412-.29882-.93813-.33147-.054-.0326.25059-1.49712.67686-3.25439l.77505-3.19503h1.57696c.87107 0 1.73047-.14519 1.91992-.32437.27063-.25596.45878-.25596.89213 0 .30204.1784 1.22271.32437 2.04593.32437h1.49676l.77505 3.19503c.42628 1.75727.73086 3.21936.67685 3.2491-.75354.41487-1.89575.57689-2.44195.3464-.46394-.1958-.79989-.17756-1.21189.0658-.40885.24148-.6557.25566-.87299.0501-.39-.36886-1.39184-.36886-1.78183 0-.21731.20551-.46477.19097-.87519-.0514-.41197-.24333-.75443-.26294-1.22291-.07-.44056.18144-.92194.18011-1.49062-.004z"/></svg>